<svg width="21" height="63" viewBox="0 0 21 63" fill="none" xmlns="http://www.w3.org/2000/svg">
<path d="M10.4872 63C13.0575 63 14.6486 61.7231 14.618 59.4954L14.006 28.987C14.006 28.0361 14.465 27.3299 15.4136 26.9495C19.4526 25.3738 21.1967 23.7167 20.9825 18.9625L20.1257 2.28202C20.0645 1.08667 19.269 0.407502 18.0145 0.407502C16.8211 0.407502 16.0867 1.11384 16.0867 2.33635L16.3009 18.555C16.3009 19.5058 15.6278 20.1035 14.618 20.1035C13.5777 20.1035 12.8433 19.533 12.8433 18.6365L12.5373 1.84735C12.5067 0.679173 11.7417 0 10.4872 0C9.23266 0 8.49832 0.679173 8.4677 1.84735L8.16174 18.6365C8.16174 19.533 7.42736 20.1035 6.38701 20.1035C5.37725 20.1035 4.67348 19.5058 4.67348 18.555L4.88767 2.33635C4.88767 1.11384 4.18391 0.407502 2.95998 0.407502C1.70544 0.407502 0.909881 1.08667 0.848685 2.28202L0.022525 18.9625C-0.222263 23.7167 1.52185 25.3738 5.56086 26.9495C6.5094 27.3299 6.9684 28.0361 6.9684 28.987L6.38701 59.4954C6.3564 61.7231 7.91694 63 10.4872 63Z" fill="white"/>
</svg>
