<svg width="50" height="45" viewBox="0 0 50 45" fill="none" xmlns="http://www.w3.org/2000/svg">
<path d="M17.6126 33.8759H42.8941C43.7391 33.8759 44.4756 33.1434 44.4756 32.1593C44.4756 31.1748 43.7391 30.4424 42.8941 30.4424H17.9809C16.7461 30.4424 15.9878 29.5269 15.7929 28.1307L12.24 2.65515C12.0234 0.892675 11.4168 0 9.20709 0H1.60312C0.736567 0 0 0.801125 0 1.7167C0 2.65515 0.736567 3.45625 1.60312 3.45625H8.92547L12.3917 28.5884C12.8466 31.8386 14.4714 33.8759 17.6126 33.8759ZM13.6265 25.7273H42.9376C46.1003 25.7273 47.7253 23.6673 48.1803 20.3941L49.9133 8.28585C49.9565 7.9883 50 7.62208 50 7.41608C50 6.3174 49.22 5.56205 48.0285 5.56205H11.7417L11.7634 9.0183H46.3171L44.7788 19.9822C44.6056 21.4013 43.8908 22.294 42.6126 22.294H13.5832L13.6265 25.7273ZM19.3241 45C21.2738 45 22.8337 43.3748 22.8337 41.2918C22.8337 39.2318 21.2738 37.5838 19.3241 37.5838C17.3527 37.5838 15.7929 39.2318 15.7929 41.2918C15.7929 43.3748 17.3527 45 19.3241 45ZM39.5797 45C41.5511 45 43.1109 43.3748 43.1109 41.2918C43.1109 39.2318 41.5511 37.5838 39.5797 37.5838C37.6299 37.5838 36.0485 39.2318 36.0485 41.2918C36.0485 43.3748 37.6299 45 39.5797 45Z" fill="white"/>
</svg>
