<svg width="16" height="42" viewBox="0 0 16 42" fill="none" xmlns="http://www.w3.org/2000/svg">
<path d="M7.8654 42C9.79312 42 10.9865 41.1487 10.9635 39.6636L10.5045 19.3247C10.5045 18.6908 10.8488 18.2199 11.5602 17.9664C14.5894 16.9159 15.8975 15.8111 15.7369 12.6417L15.0943 1.52134C15.0484 0.72445 14.4517 0.271668 13.5108 0.271668C12.6158 0.271668 12.065 0.742562 12.065 1.55757L12.2257 12.37C12.2257 13.0039 11.7208 13.4023 10.9635 13.4023C10.1832 13.4023 9.63248 13.022 9.63248 12.4243L9.40298 1.23156C9.38002 0.452782 8.8063 0 7.8654 0C6.9245 0 6.37374 0.452782 6.35078 1.23156L6.1213 12.4243C6.1213 13.022 5.57052 13.4023 4.79026 13.4023C4.03294 13.4023 3.50511 13.0039 3.50511 12.37L3.66576 1.55757C3.66576 0.742562 3.13793 0.271668 2.21999 0.271668C1.27908 0.271668 0.682411 0.72445 0.636514 1.52134L0.0168938 12.6417C-0.166697 15.8111 1.14139 16.9159 4.17065 17.9664C4.88205 18.2199 5.2263 18.6908 5.2263 19.3247L4.79026 39.6636C4.7673 41.1487 5.9377 42 7.8654 42Z" fill="#85F9B5"/>
</svg>
